{"title":"Vaxdockan AKA The Doll (Arne Mattsson, 1962, DVDRip)","uid":8751112,"size":735786352,"categoryP":"video","categoryS":"movies","magnet":"?xt=urn:btih:3b6b8b2c28601ff2d98e374d97685eb7bcf8e1e5&amp;dn=Vaxdockan+AKA+The+Doll+%28Arne+Mattsson%2C+1962%2C+DVDRip%29&amp;tr=udp%3A%2F%2Ftracker.openbittorrent.com%3A80&amp;tr=udp%3A%2F%2Fopen.demonii.com%3A1337&amp;tr=udp%3A%2F%2Ftracker.coppersurfer.tk%3A6969&amp;tr=udp%3A%2F%2Fexodus.desync.com%3A6969","seeders":1,"leechers":0,"uploader":"rpessoa","files":2,"time":1375033483,"description":"A lonely night watchman at a department store develops a fixation on one of the store's mannequins. He soon steals her and brings her to his home, where he can be with her all the time. One day, she comes to life...\n &lt;a href=&quot;\nhttp://www.imdb.com/title/tt0056649/&quot; rel=&quot;nofollow&quot; target=&quot;_NEW&quot;&gt;\nhttp://www.imdb.com/title/tt0056649/&lt;/a&gt;\n\nGeneral\nComplete name                            : vaxdockan.DVDRip.XviD.avi\nFormat                                   : AVI\nFormat/Info                              : Audio Video Interleave\nFile size                                : 702 MiB\nDuration                                 : 1h 30mn\nOverall bit rate mode                    : Variable\nOverall bit rate                         : 1 084 Kbps\nWriting application                      : VirtualDubMod 1.5.4.1 (build 2178/release)\nWriting library                          : VirtualDubMod build 2178/release\n\nVideo\nID                                       : 0\nFormat                                   : MPEG-4 Visual\nFormat profile                           : Advanced Simple@L5\nFormat settings, BVOP                    : 1\nFormat settings, QPel                    : No\nFormat settings, GMC                     : No warppoints\nFormat settings, Matrix                  : Custom\nCodec ID                                 : XVID\nCodec ID/Hint                            : XviD\nDuration                                 : 1h 30mn\nBit rate                                 : 979 Kbps\nWidth                                    : 640 pixels\nHeight                                   : 480 pixels\nDisplay aspect ratio                     : 4:3\nFrame rate                               : 25.000 fps\nColor space                              : YUV\nChroma subsampling                       : 4:2:0\nBit depth                                : 8 bits\nScan type                                : Progressive\nCompression mode                         : Lossy\nBits/(Pixel*Frame)                       : 0.127\nStream size                              : 634 MiB (90%)\nWriting library                          : XviD 1.2.0.dev47 (UTC 2006-11-01)\n\nAudio\nID                                       : 1\nFormat                                   : MPEG Audio\nFormat version                           : Version 1\nFormat profile                           : Layer 3\nMode                                     : Joint stereo\nMode extension                           : MS Stereo\nCodec ID                                 : 55\nCodec ID/Hint                            : MP3\nDuration                                 : 1h 30mn\nBit rate mode                            : Variable\nBit rate                                 : 92.5 Kbps\nNominal bit rate                         : 112 Kbps\nChannel(s)                               : 2 channels\nSampling rate                            : 44.1 KHz\nCompression mode                         : Lossy\nStream size                              : 59.9 MiB (9%)\nAlignment                                : Aligned on interleaves\nInterleave, duration                     : 26 ms (0.65 video frame)\nInterleave, preload duration             : 206 ms\nWriting library                          : LAME3.97\nEncoding settings                        : -m j -V 4 -q 2 -lowpass 15.6 --abr 112","torrent":{"xt":"urn:btih:3b6b8b2c28601ff2d98e374d97685eb7bcf8e1e5","amp;dn":"Vaxdockan+AKA+The+Doll+%28Arne+Mattsson%2C+1962%2C+DVDRip%29","amp;tr":["udp%3A%2F%2Ftracker.openbittorrent.com%3A80","udp%3A%2F%2Fopen.demonii.com%3A1337","udp%3A%2F%2Ftracker.coppersurfer.tk%3A6969","udp%3A%2F%2Fexodus.desync.com%3A6969"],"infoHash":"3b6b8b2c28601ff2d98e374d97685eb7bcf8e1e5","infoHashBuffer":{"type":"Buffer","data":[59,107,139,44,40,96,31,242,217,142,55,77,151,104,94,183,188,248,225,229]},"announce":[],"urlList":[]}}